<?xml version="1.0" ?><svg id="Layer_1" style="enable-background:new 0 0 64 64;" version="1.1" viewBox="0 0 64 64" xml:space="preserve" xmlns="http://www.w3.org/2000/svg" xmlns:xlink="http://www.w3.org/1999/xlink"><style type="text/css">
	.st0{fill:#FACC2E;}
	.st1{fill:#FF7F00;}
	.st2{fill-rule:evenodd;clip-rule:evenodd;fill:#FFFFFF;}
	.st3{fill:#ACBDC5;}
	.st4{fill-rule:evenodd;clip-rule:evenodd;fill:#314A52;}
</style><g id="Blogger"><path class="st0" d="M3,9c0-3.3,2.7-6,6-6h46c3.3,0,6,2.7,6,6v46c0,3.3-2.7,6-6,6H9c-3.3,0-6-2.7-6-6V9z"/><path class="st1" d="M4,10c0-3.3,2.7-6,6-6h10V0H10C4.5,0,0,4.5,0,10v44c0,5.5,4.5,10,10,10h42v-3h5l4-4V20h-1   c0,12.2-7.7,22.8-19,28.2c-3.5,2.3-9.8,3.8-17,3.8c-11,0-20-3.6-20-8V10z"/><path class="st2" d="M24,36c-1.1,0-2,0.9-2,2c0,1.1,0.9,2,2,2h16c1.1,0,2-0.9,2-2c0-1.1-0.9-2-2-2H24z M24,24c-1.1,0-2,0.9-2,2   c0,1.1,0.9,2,2,2h8c1.1,0,2-0.9,2-2c0-1.1-0.9-2-2-2H24z M25,12h6c7.2,0,13,5.8,13,13c0,1.7,1.3,3,3,3h2c1.7,0,3,1.3,3,3v8   c0,7.2-5.8,13-13,13H25c-7.2,0-13-5.8-13-13V25C12,17.8,17.8,12,25,12z"/><path class="st3" d="M51.9,40.2C45.5,47.3,35.7,51.8,24.6,52c0.1,0,0.2,0,0.4,0h14C45.8,52,51.4,46.8,51.9,40.2z"/><path class="st4" d="M54,4H16V0h38c5.5,0,10,4.5,10,10v44c0,5.5-4.5,10-10,10h-6v-4h6c3.3,0,6-2.7,6-6V10C60,6.7,57.3,4,54,4z"/></g></svg>